<svg width="92" height="92" viewBox="0 0 92 92" fill="none" xmlns="http://www.w3.org/2000/svg">
<path d="M68.6345 25.5105C67.5019 42.1901 66.2339 58.8443 64.4089 81.5834C64.307 82.852 63.3453 83.8472 62.1519 83.8472C56.186 83.8459 51.8421 83.837 46.0232 83.8295C40.2043 83.837 35.8605 83.8459 29.8946 83.8472C28.7012 83.8472 27.7333 82.8534 27.6376 81.5834C25.4537 52.7287 24.7271 43.1012 23.412 25.5105" fill="white"/>
<path d="M66.994 25.5105C66.3296 35.2904 65.616 45.0677 64.8702 54.8422C64.443 60.4389 64.0056 66.0357 63.5626 71.6311C63.3179 74.7227 63.0712 77.815 62.823 80.9067C62.7342 82.0133 62.5599 82.2067 61.4833 82.2067C60.0247 82.2067 58.566 82.2054 57.1073 82.204C51.3711 82.1985 45.6356 82.1896 39.8994 82.1978C37.06 82.202 34.22 82.2054 31.3806 82.2067C30.6212 82.2067 29.5173 82.5218 29.2862 81.597C29.1194 80.9292 29.1659 80.1055 29.1133 79.4152C29.0524 78.6107 28.9916 77.8061 28.9308 77.0016C28.2329 67.776 27.5343 58.5504 26.8392 49.324C26.3122 42.3301 25.7872 35.3356 25.2636 28.3417C25.1932 27.3984 25.1228 26.4551 25.0517 25.5118C24.9854 24.628 24.345 23.8714 23.4113 23.8714C22.5746 23.8714 21.7045 24.6232 21.7708 25.5118C22.3217 32.8762 22.874 40.2406 23.4283 47.605C24.131 56.9359 24.8371 66.2668 25.5432 75.5977C25.6642 77.2005 25.7859 78.8041 25.9068 80.407C26.0169 81.8588 26.1044 83.258 27.1932 84.3523C28.319 85.4829 29.7237 85.4884 31.2179 85.4877C32.7121 85.487 34.1926 85.4856 35.6793 85.4843C41.652 85.4781 47.624 85.4733 53.5967 85.4808C55.0164 85.4829 56.4368 85.4843 57.8565 85.4856C59.4109 85.487 61.0465 85.6312 62.59 85.4474C63.8791 85.2936 65.0247 84.4713 65.5968 83.3011C66.2845 81.8944 66.1683 80.0953 66.2906 78.5655C66.7759 72.4971 67.2564 66.4281 67.726 60.3583C68.5319 49.9495 69.307 39.5379 70.0268 29.1229C70.1102 27.9192 70.1922 26.7155 70.2742 25.5112C70.3344 24.626 69.4772 23.8707 68.6338 23.8707C67.696 23.8707 67.0534 24.6239 66.9933 25.5112L66.994 25.5105Z" fill="#A17BA4"/>
<path d="M26.5077 10.3019C26.2692 12.8521 25.913 16.0975 25.6553 18.3019L25.6342 18.4824C31.8194 18.4824 60.2291 18.4824 66.4123 18.4824C66.3973 18.3669 66.3898 18.3019 66.3898 18.3019C66.0972 15.8002 65.6782 11.9567 65.4478 9.31074C65.3891 8.63746 64.8908 8.12891 64.2954 8.12891H27.7497C27.1543 8.12891 26.656 8.63814 26.5972 9.31074C26.5699 9.62516 26.5398 9.95736 26.5077 10.3019Z" fill="#FFBB8E"/>
<path d="M71.7034 18.4831H20.3408C19.8015 18.4831 19.364 18.9206 19.364 19.4599C19.364 23.1694 19.364 27.5625 19.364 31.272C19.364 31.8113 19.8015 32.2488 20.3408 32.2488H71.7034C72.2428 32.2488 72.6802 31.8113 72.6802 31.272C72.6802 27.5625 72.6802 23.1694 72.6802 19.4599C72.6802 18.9206 72.2428 18.4831 71.7034 18.4831Z" fill="#FFBB8E"/>
<path d="M68.0302 18.3019C67.8142 16.4454 67.6092 14.5883 67.4178 12.7291C67.3344 11.9164 67.2531 11.1036 67.1772 10.2902C67.0774 9.22188 67.0528 8.1132 66.2332 7.30731C65.3358 6.42487 64.2763 6.48844 63.1525 6.48844H29.5815C28.7866 6.48844 27.8809 6.38386 27.0955 6.57046C24.6314 7.15556 24.8829 10.2123 24.6847 12.1693C24.4776 14.2151 24.2534 16.2595 24.0149 18.3026C23.9123 19.1844 24.8426 19.9431 25.6553 19.9431C26.6273 19.9431 27.1926 19.1864 27.2958 18.3026C27.4954 16.5876 27.6854 14.8706 27.8645 13.1529C27.9506 12.3285 28.034 11.5042 28.1126 10.6792C28.1256 10.5432 28.3115 9.62107 28.2172 9.54793C28.2712 9.58962 27.764 9.78238 27.7565 9.77008C27.8331 9.89858 29.235 9.77008 29.3861 9.77008H63.4547C63.644 9.77008 64.0623 9.85347 64.2366 9.77008C64.4683 9.65934 63.7602 9.63474 63.8286 9.54793C63.7014 9.70924 63.9489 10.8419 63.9714 11.0756C64.0158 11.5336 64.0616 11.9909 64.1081 12.4488C64.3077 14.4017 64.5223 16.3532 64.7493 18.3026C64.8518 19.1823 65.4301 19.9431 66.3897 19.9431C67.197 19.9431 68.1335 19.1885 68.0302 18.3026V18.3019Z" fill="#A17BA4"/>
<path d="M71.7034 16.8426H50.1066C44.5563 16.8426 39.0053 16.8426 33.455 16.8426H21.9621C21.1966 16.8426 20.3223 16.7469 19.578 16.9636C18.1494 17.3792 17.7235 18.7004 17.7235 20.0354C17.7235 21.2937 17.7235 22.5521 17.7235 23.8105C17.7235 26.3143 17.552 28.8878 17.7365 31.3834C17.8479 32.8878 19.0058 33.8345 20.4659 33.8885C20.7673 33.8994 21.0715 33.8885 21.3729 33.8885H69.1778C69.9919 33.8885 70.8148 33.9227 71.6283 33.8885C73.4963 33.8092 74.32 32.4196 74.32 30.6957C74.32 28.0922 74.32 25.4879 74.32 22.8843C74.32 21.7134 74.3931 20.5145 74.307 19.3477C74.197 17.857 73.1149 17.0053 71.7028 16.8426C70.821 16.7407 70.0623 17.669 70.0623 18.4831C70.0623 19.4544 70.819 20.0217 71.7028 20.1235L71.039 19.4598C71.039 19.6519 71.039 19.844 71.039 20.036C71.039 20.33 71.039 20.6239 71.039 20.9178C71.039 21.522 71.039 22.127 71.039 22.7312C71.039 23.9725 71.039 25.2145 71.039 26.4558C71.039 27.6738 71.039 28.8926 71.039 30.1106C71.039 30.3704 70.9796 30.7333 71.039 30.9856V31.272C71.795 30.829 72.0158 30.6076 71.7021 30.6082C71.6918 30.6041 71.6768 30.6117 71.6659 30.6082C71.4902 30.5488 71.1908 30.6082 71.0076 30.6082H58.285C48.112 30.6082 37.939 30.6082 27.7653 30.6082H22.8254C22.1036 30.6082 21.1569 30.4462 20.4474 30.6082C20.4167 30.6151 20.3695 30.5959 20.3401 30.6082L21.0038 31.272C21.0038 31.0799 21.0038 30.8878 21.0038 30.6957C21.0038 30.4018 21.0038 30.1079 21.0038 29.814C21.0038 29.2097 21.0038 28.6048 21.0038 28.0006C21.0038 25.5405 21.0038 23.0812 21.0038 20.6211C21.0038 20.3614 21.0633 19.9985 21.0038 19.7462V19.4598C20.2478 19.9028 20.027 20.1242 20.3408 20.1235C20.351 20.1276 20.3661 20.1201 20.377 20.1235C20.4413 20.1454 20.5383 20.1174 20.606 20.1235C20.9484 20.1543 21.308 20.1235 21.6518 20.1235C30.3156 20.1235 38.9793 20.1235 47.6431 20.1235H71.7028C73.8142 20.1235 73.8176 16.8426 71.7028 16.8426H71.7034Z" fill="#A17BA4"/>
</svg>
