<svg width="92" height="92" viewBox="0 0 92 92" fill="none" xmlns="http://www.w3.org/2000/svg">
<path d="M72.3743 69.4169C72.3217 70.46 73.1531 71.3346 74.1974 71.3346C74.9161 71.3346 75.6349 71.3346 76.3536 71.3346C77.4298 71.3346 78.0891 70.4111 78.1654 69.3374C78.8015 60.419 79.3788 52.548 82.1441 44.0979C82.161 44.046 82.1867 43.9952 82.2042 43.9433C84.6691 36.6082 83.2585 30.7726 82.1773 27.7455C81.118 24.7792 79.0751 22.6887 76.4982 20.9777C75.8377 20.5394 74.5774 20.5062 73.9582 21.0021C68.4914 25.3783 63.8647 30.3888 59.4133 35.7931C57.8675 37.6694 56.3831 39.6077 54.6226 41.2844C53.0067 42.8232 51.1798 44.1211 49.3598 45.4127C46.6232 47.3548 36.4846 52.2413 31.076 54.353C26.9652 55.9946 22.7899 57.6399 18.9289 58.8056C16.3639 59.5801 14.331 60.3157 11.5801 61.4639C9.42951 62.3617 8.06843 65.6142 8.53235 67.4943C9.03759 69.5384 12.0177 71.3346 15.3465 71.3346C27.4892 71.3346 29.045 71.3346 42.0404 71.3402C46.1205 71.3402 50.1236 69.1102 52.8439 65.926C55.6043 62.6948 57.5232 58.8225 60.2216 55.5394C63.0602 52.086 66.8504 49.3463 71.3531 49.9348C72.2923 50.0575 72.9759 50.8946 72.9277 51.8406C72.6673 56.9931 72.4112 68.6575 72.373 69.4169H72.3743Z" fill="#FFBB8E"/>
<path d="M70.8716 69.4169C70.8772 70.5538 71.3856 71.6062 72.3309 72.2574C73.3489 72.9579 74.561 72.8371 75.7374 72.8371C76.905 72.8371 77.9593 72.6612 78.757 71.7265C79.5308 70.8199 79.6391 69.7399 79.7211 68.5967C80.0692 63.7346 80.4242 58.86 81.2512 54.0512C81.6588 51.6821 82.1753 49.3312 82.8271 47.0166C83.4988 44.6306 84.3703 42.3292 84.7422 39.8656C85.3132 36.0872 85.1179 32.2244 84.0222 28.555C83.5101 26.8395 82.8026 25.1961 81.7177 23.7611C80.4981 22.1477 78.8302 20.4636 77.0039 19.547C76.0035 19.0449 74.7351 18.9992 73.7064 19.4375C72.6427 19.8907 71.7005 20.9069 70.8309 21.6563C69.0278 23.2102 67.2979 24.8492 65.6326 26.5497C62.2161 30.0381 59.184 33.8278 56.0361 37.551C53.4592 40.5987 50.3364 43.2001 46.8723 45.191C40.5483 48.8253 33.7949 51.7134 27.0264 54.3473C24.7018 55.2513 22.3647 56.1266 19.9919 56.8973C17.7987 57.6098 15.5981 58.2659 13.4463 59.1004C12.3895 59.5099 11.2049 59.8574 10.2495 60.4722C9.4225 61.0043 8.75824 61.7343 8.2242 62.5545C7.2588 64.0395 6.69846 65.9779 7.05157 67.7415C7.42283 69.5959 9.09194 71.0252 10.7285 71.7916C12.9335 72.824 15.1692 72.8365 17.5546 72.8365C20.9917 72.8365 24.4295 72.8365 27.8666 72.8365C31.3038 72.8365 34.7584 72.8384 38.2037 72.8396C40.5039 72.8409 42.8504 72.998 45.1099 72.4771C47.2517 71.9838 49.2958 70.967 51.0432 69.6435C54.8579 66.7548 57.0917 62.4762 59.775 58.6209C61.9913 55.4373 65.0629 51.8943 69.1711 51.4041C69.6369 51.3484 71.0782 51.1193 71.3824 51.5619C71.5909 51.8649 71.3806 52.8215 71.3643 53.1978C71.2954 54.8131 71.2416 56.429 71.1909 58.0455C71.0926 61.1652 71.0118 64.2856 70.9298 67.4059C70.9123 68.0758 70.9035 68.7463 70.8722 69.4156C70.7814 71.3489 73.7866 71.3445 73.8773 69.4156C74.1209 64.2386 74.1353 59.0485 74.3419 53.869C74.412 52.1066 74.6862 50.2509 73.0559 49.0595C71.5051 47.9269 68.9583 48.2675 67.2122 48.7502C63.0776 49.894 60.0017 53.1653 57.58 56.5379C55.0494 60.0615 53.0617 64.2098 49.6195 66.9708C48.0706 68.2129 46.2475 69.1326 44.3117 69.5784C42.2957 70.0429 40.1308 69.8338 38.0754 69.8332C31.5742 69.8307 25.0731 69.8294 18.5726 69.8294C16.4915 69.8294 14.2802 70.0711 12.3175 69.229C11.6369 68.9373 10.9645 68.5222 10.4718 67.9631C10.0705 67.508 9.94841 67.1417 9.94715 66.6866C9.9434 65.4745 10.6296 63.8949 11.6895 63.1161C12.4527 62.5551 13.4989 62.284 14.3735 61.9466C15.4228 61.5421 16.4809 61.1627 17.5489 60.8115C19.6763 60.1122 21.8175 59.4755 23.9249 58.7129C26.2733 57.8633 28.5972 56.9467 30.9168 56.022C34.1186 54.7455 37.2708 53.3593 40.3843 51.8806C43.2811 50.5045 46.1949 49.102 48.9502 47.4555C52.3993 45.3944 55.5722 42.738 58.1629 39.6728C61.1292 36.1636 63.9841 32.5869 67.1752 29.2724C68.7924 27.5927 70.469 25.9699 72.2157 24.4254C72.6377 24.0522 73.0634 23.6841 73.4936 23.3204C73.8861 22.9885 74.3394 22.4626 74.802 22.2391C75.4688 21.9167 76.0147 22.4439 76.5375 22.8258C77.9687 23.8719 79.224 25.1848 80.0861 26.7394C80.7804 27.9902 81.1855 29.4008 81.5073 30.7888C82.3487 34.4169 82.2254 38.2153 81.2763 41.8102C80.6646 44.1266 79.8407 46.3736 79.2822 48.7089C78.7394 50.9796 78.3187 53.2773 77.9862 55.5875C77.6613 57.8483 77.4084 60.1172 77.203 62.3917C77.0997 63.533 77.0077 64.6756 76.9207 65.8182C76.8336 66.9608 76.8894 68.2298 76.6565 69.3536C76.4993 70.1124 75.815 69.8276 75.1226 69.8276C74.603 69.8276 73.8811 70.0379 73.878 69.4125C73.868 67.4792 70.8628 67.4754 70.8728 69.4125L70.8716 69.4169Z" fill="#A17BA4"/>
</svg>
