<svg width="92" height="92" viewBox="0 0 92 92" fill="none" xmlns="http://www.w3.org/2000/svg">
<path d="M6.95752 58.5685V52.1135C6.95752 51.5617 7.35027 51.0752 7.89554 50.9912C10.4225 50.6032 12.0205 48.6311 12.0205 45.9348C12.0205 43.4937 10.3595 41.3973 7.87752 40.9787C7.34006 40.8881 6.95752 40.4052 6.95752 39.86V31.8917C6.95752 29.9989 8.49184 28.4645 10.3847 28.4645H64.8594C64.8594 28.8363 64.8594 29.0446 64.8594 29.0446C64.8594 29.8625 64.8594 62.6814 64.8594 63.4994H10.3847C8.49184 63.4994 6.95752 61.965 6.95752 60.0722V58.5685Z" fill="white"/>
<path d="M85.0248 33.2843V31.8923C85.0248 29.9995 83.4905 28.4651 81.5976 28.4651H64.86C64.86 45.8838 64.86 63.5 64.86 63.5H81.5982C83.4911 63.5 85.0254 61.9656 85.0254 60.0728V52.1093C85.0254 51.5587 84.6338 51.0758 84.0904 50.9882C81.6397 50.5936 79.9624 48.6395 79.9624 45.9354C79.9624 43.5099 81.6162 41.3991 84.1066 40.9793C84.6434 40.8887 85.026 40.4052 85.026 39.8606C85.026 39.8606 85.026 35.5687 85.026 33.2843H85.0248Z" fill="#A2DEDF"/>
<path d="M81.4031 45.9348C81.4301 44.5428 82.1687 43.2264 83.4755 42.6481C84.4543 42.2146 85.4338 42.2686 86.0655 41.2369C86.3574 40.7601 86.4552 40.2371 86.466 39.6876C86.5075 37.623 86.466 35.5536 86.466 33.489C86.466 32.8237 86.5069 32.1415 86.4414 31.4773C86.2426 29.4692 84.8542 27.7427 82.8912 27.198C82.1982 27.0059 81.504 27.0227 80.7978 27.0227H12.1327C11.5881 27.0227 11.0428 27.0173 10.4981 27.0227C7.75977 27.0485 5.58409 29.1407 5.51623 31.8929C5.47119 33.7286 5.51623 35.571 5.51623 37.4074C5.51623 38.1983 5.48801 38.9952 5.51623 39.7855C5.54266 40.5253 5.78106 41.2285 6.33113 41.7468C7.03134 42.4073 8.00057 42.3503 8.80046 42.8061C11.2974 44.2287 11.1761 48.5242 8.29843 49.4202C7.27695 49.7385 6.39059 49.8574 5.8243 50.8993C5.58049 51.3478 5.52344 51.8367 5.51623 52.3357C5.50302 53.2431 5.51623 54.1511 5.51623 55.0584V58.5973C5.51623 59.3533 5.4766 60.1196 5.5925 60.8691C5.97142 63.315 8.1489 64.9231 10.5504 64.94C12.2907 64.9526 14.0316 64.94 15.7719 64.94H78.4053C80.1029 64.94 82.1297 65.1862 83.7049 64.4541C85.4091 63.6627 86.4228 61.9085 86.4666 60.062C86.4829 59.3852 86.4666 58.7054 86.4666 58.0286C86.4666 56.0763 86.5501 54.1042 86.4666 52.1531C86.4318 51.3418 86.1358 50.6212 85.498 50.103C84.838 49.5667 83.9937 49.5991 83.2623 49.2322C81.9934 48.5957 81.4265 47.3082 81.4031 45.9336C81.3718 44.081 78.4894 44.075 78.5206 45.9336C78.5512 47.7435 79.1661 49.5667 80.5317 50.8104C81.1827 51.4037 81.9291 51.8391 82.7579 52.1327C82.8527 52.1663 83.6995 52.457 83.7379 52.3657C83.7301 52.3837 83.6406 52.0973 83.5836 52.1651C83.4989 52.2666 83.5836 52.8071 83.5836 52.9356V57.9619C83.5836 59.5845 83.8904 61.953 81.597 62.0569C81.2637 62.0719 80.9263 62.0569 80.593 62.0569H12.5885C10.9527 62.0569 8.4978 62.4136 8.39812 60.056C8.32065 58.2082 8.39812 56.3405 8.39812 54.4909V53.1392C8.39812 52.9056 8.4948 52.4174 8.39812 52.2012C8.29062 51.961 8.6083 52.3753 8.35428 52.2636L8.24559 52.3669C8.32005 52.4011 8.39812 52.3933 8.48099 52.3441C8.66234 52.3435 8.89235 52.2522 9.0641 52.1988C9.96547 51.9177 10.7894 51.4523 11.4848 50.8128C14.1235 48.3843 14.0766 43.8041 11.5688 41.3156C10.9161 40.6676 10.1294 40.1878 9.27127 39.8653C9.17579 39.8293 8.26961 39.5044 8.23418 39.5963C8.2618 39.5248 8.30684 39.9752 8.39812 39.7693C8.48459 39.5753 8.39812 39.1411 8.39812 38.9321V37.4765C8.39812 35.6251 8.32005 33.7551 8.39812 31.9049C8.45336 30.5963 9.44482 29.9082 10.6621 29.904C16.0535 29.8853 21.445 29.904 26.8364 29.904H77.8492C79.0935 29.904 80.3528 29.8475 81.5964 29.904C82.732 29.9556 83.5349 30.7693 83.583 31.9049C83.6124 32.6009 83.583 33.3041 83.583 34.0007V37.4765C83.583 37.9617 83.583 38.4469 83.583 38.9321C83.583 39.0799 83.4869 39.6828 83.583 39.8011C83.7391 39.9939 83.0893 39.466 83.6304 39.7008L83.7475 39.5963C83.6712 39.5657 83.5926 39.5759 83.5103 39.6275C83.3187 39.6341 83.0821 39.7338 82.902 39.7957C82.0252 40.0977 81.2349 40.5577 80.5515 41.1853C79.2274 42.4013 78.5542 44.1584 78.52 45.933C78.484 47.7886 81.3664 47.7886 81.4025 45.933L81.4031 45.9348Z" fill="#A17BA4"/>
<path d="M63.4181 29.0452V63.4999C63.4181 65.3549 66.3006 65.3579 66.3006 63.4999V29.0452C66.3006 27.1902 63.4181 27.1872 63.4181 29.0452Z" fill="#A17BA4"/>
<path d="M24.1042 42.352C29.2632 42.352 34.4223 42.352 39.5813 42.352C41.4363 42.352 41.4393 39.4695 39.5813 39.4695C34.4223 39.4695 29.2632 39.4695 24.1042 39.4695C22.2492 39.4695 22.2462 42.352 24.1042 42.352Z" fill="#A17BA4"/>
<path d="M24.1042 52.1537H48.6095C50.4645 52.1537 50.4675 49.2712 48.6095 49.2712H24.1042C22.2492 49.2712 22.2462 52.1537 24.1042 52.1537Z" fill="#A17BA4"/>
</svg>
