<svg width="340" height="29" viewBox="0 0 340 29" fill="none" xmlns="http://www.w3.org/2000/svg">
<path d="M14 25.4083L12.3083 23.8683C6.30001 18.42 2.33334 14.815 2.33334 10.4167C2.33334 6.81167 5.15668 4 8.75001 4C10.78 4 12.7283 4.945 14 6.42667C15.2717 4.945 17.22 4 19.25 4C22.8433 4 25.6667 6.81167 25.6667 10.4167C25.6667 14.815 21.7 18.42 15.6917 23.8683L14 25.4083Z" fill="#FAFAFA"/>
<path d="M39.52 5.2H44.08L48.04 13.36L52 5.2H56.56L50.2 17.56V22H45.88V17.56L39.52 5.2ZM67.8494 9.76C67.8494 8.8 67.3694 8.32 66.4094 8.32H62.3294C61.3694 8.32 60.8894 8.8 60.8894 9.76V17.44C60.8894 18.4 61.3694 18.88 62.3294 18.88H66.4094C67.3694 18.88 67.8494 18.4 67.8494 17.44V9.76ZM72.1694 17.44C72.1694 19.12 71.7854 20.344 71.0174 21.112C70.2654 21.864 69.0494 22.24 67.3694 22.24H61.3694C59.6894 22.24 58.4654 21.864 57.6974 21.112C56.9454 20.344 56.5694 19.12 56.5694 17.44V9.76C56.5694 8.08 56.9454 6.864 57.6974 6.112C58.4654 5.344 59.6894 4.96 61.3694 4.96H67.3694C69.0494 4.96 70.2654 5.344 71.0174 6.112C71.7854 6.864 72.1694 8.08 72.1694 9.76V17.44ZM74.0766 18.52C78.4606 18.76 81.4286 18.88 82.9806 18.88C83.3486 18.88 83.6366 18.776 83.8446 18.568C84.0686 18.344 84.1806 18.048 84.1806 17.68V15.52H78.6606C76.9806 15.52 75.7566 15.144 74.9886 14.392C74.2366 13.624 73.8606 12.4 73.8606 10.72V10C73.8606 8.32 74.2366 7.104 74.9886 6.352C75.7566 5.584 76.9806 5.2 78.6606 5.2H87.0846V8.56H79.6206C78.6606 8.56 78.1806 9.04 78.1806 10V10.48C78.1806 11.44 78.6606 11.92 79.6206 11.92H83.9406C85.5086 11.92 86.6606 12.288 87.3966 13.024C88.1326 13.76 88.5006 14.912 88.5006 16.48V17.68C88.5006 19.248 88.1326 20.4 87.3966 21.136C86.6606 21.872 85.5086 22.24 83.9406 22.24C83.1246 22.24 82.2606 22.224 81.3486 22.192L79.1406 22.096C77.5086 22.016 75.8206 21.904 74.0766 21.76V18.52ZM105.299 22H100.979V15.16H94.9788V22H90.6588V5.2H94.9788V11.8H100.979V5.2H105.299V22ZM116.11 22H107.47V18.64H109.63V8.56H107.47V5.2H116.11V8.56H113.95V18.64H116.11V22ZM132.908 22H128.588V15.16H122.588V22H118.268V5.2H122.588V11.8H128.588V5.2H132.908V22ZM138.799 22H134.119L140.479 5.2H145.279L151.639 22H146.959L145.879 19H139.879L138.799 22ZM140.959 15.88H144.799L142.879 10.24L140.959 15.88ZM152.838 5.2H162.918C164.598 5.2 165.814 5.584 166.566 6.352C167.334 7.104 167.718 8.32 167.718 10V12.16C167.718 13.488 167.494 14.52 167.046 15.256C166.614 15.992 165.918 16.48 164.958 16.72L167.958 22H163.278L160.518 16.96H157.158V22H152.838V5.2ZM163.398 10C163.398 9.04 162.918 8.56 161.958 8.56H157.158V13.6H161.958C162.918 13.6 163.398 13.12 163.398 12.16V10ZM180.912 5.2H185.232V17.44C185.232 19.12 184.848 20.344 184.08 21.112C183.328 21.864 182.112 22.24 180.432 22.24H174.912C173.232 22.24 172.008 21.864 171.24 21.112C170.488 20.344 170.112 19.12 170.112 17.44V5.2H174.432V17.44C174.432 18.4 174.912 18.88 175.872 18.88H179.472C180.432 18.88 180.912 18.4 180.912 17.44V5.2ZM187.392 26.56V23.2H197.232V26.56H187.392ZM199.385 5.2H209.465C211.145 5.2 212.361 5.584 213.113 6.352C213.881 7.104 214.265 8.32 214.265 10V12.4C214.265 14.08 213.881 15.304 213.113 16.072C212.361 16.824 211.145 17.2 209.465 17.2H203.705V22H199.385V5.2ZM209.945 10C209.945 9.04 209.465 8.56 208.505 8.56H203.705V13.84H208.505C209.465 13.84 209.945 13.36 209.945 12.4V10ZM227.224 9.76C227.224 8.8 226.744 8.32 225.784 8.32H221.704C220.744 8.32 220.264 8.8 220.264 9.76V17.44C220.264 18.4 220.744 18.88 221.704 18.88H225.784C226.744 18.88 227.224 18.4 227.224 17.44V9.76ZM231.544 17.44C231.544 19.12 231.16 20.344 230.392 21.112C229.64 21.864 228.424 22.24 226.744 22.24H220.744C219.064 22.24 217.84 21.864 217.072 21.112C216.32 20.344 215.944 19.12 215.944 17.44V9.76C215.944 8.08 216.32 6.864 217.072 6.112C217.84 5.344 219.064 4.96 220.744 4.96H226.744C228.424 4.96 229.64 5.344 230.392 6.112C231.16 6.864 231.544 8.08 231.544 9.76V17.44ZM233.956 5.2H244.036C245.716 5.2 246.932 5.584 247.684 6.352C248.452 7.104 248.836 8.32 248.836 10V12.16C248.836 13.488 248.612 14.52 248.164 15.256C247.732 15.992 247.036 16.48 246.076 16.72L249.076 22H244.396L241.636 16.96H238.276V22H233.956V5.2ZM244.516 10C244.516 9.04 244.036 8.56 243.076 8.56H238.276V13.6H243.076C244.036 13.6 244.516 13.12 244.516 12.16V10ZM259.389 22H255.069V8.56H250.029V5.2H264.429V8.56H259.389V22ZM270.432 22H266.112V5.2H279.432V8.56H270.432V12.52H277.512V15.88H270.432V22ZM291.912 9.76C291.912 8.8 291.432 8.32 290.472 8.32H286.392C285.432 8.32 284.952 8.8 284.952 9.76V17.44C284.952 18.4 285.432 18.88 286.392 18.88H290.472C291.432 18.88 291.912 18.4 291.912 17.44V9.76ZM296.232 17.44C296.232 19.12 295.848 20.344 295.08 21.112C294.328 21.864 293.112 22.24 291.432 22.24H285.432C283.752 22.24 282.528 21.864 281.76 21.112C281.008 20.344 280.632 19.12 280.632 17.44V9.76C280.632 8.08 281.008 6.864 281.76 6.112C282.528 5.344 283.752 4.96 285.432 4.96H291.432C293.112 4.96 294.328 5.344 295.08 6.112C295.848 6.864 296.232 8.08 296.232 9.76V17.44ZM302.963 18.64H311.723V22H298.643V5.2H302.963V18.64ZM321.329 22H312.689V18.64H314.849V8.56H312.689V5.2H321.329V8.56H319.169V18.64H321.329V22ZM334.287 9.76C334.287 8.8 333.807 8.32 332.847 8.32H328.767C327.807 8.32 327.327 8.8 327.327 9.76V17.44C327.327 18.4 327.807 18.88 328.767 18.88H332.847C333.807 18.88 334.287 18.4 334.287 17.44V9.76ZM338.607 17.44C338.607 19.12 338.223 20.344 337.455 21.112C336.703 21.864 335.487 22.24 333.807 22.24H327.807C326.127 22.24 324.903 21.864 324.135 21.112C323.383 20.344 323.007 19.12 323.007 17.44V9.76C323.007 8.08 323.383 6.864 324.135 6.112C324.903 5.344 326.127 4.96 327.807 4.96H333.807C335.487 4.96 336.703 5.344 337.455 6.112C338.223 6.864 338.607 8.08 338.607 9.76V17.44Z" fill="#FAFAFA"/>
</svg>
