<svg width="92" height="92" viewBox="0 0 92 92" fill="none" xmlns="http://www.w3.org/2000/svg">
<path d="M35.565 14.8217C35.565 14.7121 35.565 14.6036 35.565 14.4977C37.3226 14.4977 39.0797 14.4977 40.8373 14.4977V15.0588C40.8373 15.0588 40.8373 19.5069 40.8373 23.0167C38.9218 23.0167 37.1202 23.0167 35.5634 23.0167C35.5644 20.4495 35.565 17.2061 35.565 14.8217Z" fill="white"/>
<path d="M56.4091 15.1511C56.4091 14.9264 56.4091 14.7088 56.4091 14.4988H51.1367C51.1367 17.3081 51.1367 20.526 51.1367 23.0184C53.0517 23.0168 54.8533 23.0168 56.4096 23.0168C56.4096 20.5656 56.4091 17.4986 56.4091 15.1511Z" fill="white"/>
<path d="M41.3726 8.36249C40.4946 8.36249 39.6166 8.36249 38.7386 8.36249C36.9858 8.36249 35.5652 9.78314 35.5652 11.5359C35.5652 11.5359 35.5652 12.7482 35.5652 14.4976C37.3527 14.4976 39.1407 14.4976 40.9282 14.4976C41.1631 13.7835 41.836 13.2691 42.6288 13.2696C45.234 13.2729 47.7476 13.274 49.3587 13.2745C50.1472 13.2745 50.813 13.7862 51.0469 14.496C53.7075 14.4982 56.4088 14.4982 56.4088 14.4982C56.4088 12.7482 56.4088 11.5359 56.4088 11.5359C56.4088 9.78314 54.9881 8.36249 53.2354 8.36249C49.2811 8.36249 45.3263 8.36249 41.372 8.36249H41.3726Z" fill="#BFA7DC"/>
<path d="M57.7114 27.1902C57.7114 24.3565 57.7114 21.5228 57.7114 18.6891V13.2692C57.7114 11.9772 57.8166 10.6791 57.211 9.48316C56.4839 8.04732 55.0079 7.16226 53.4223 7.06567C51.4525 6.94574 49.4371 7.06025 47.4635 7.06025C45.4497 7.06025 43.4365 7.06025 41.4228 7.06025C39.6895 7.06025 37.7442 6.78838 36.2351 7.82972C34.9962 8.68438 34.2978 10.0442 34.2625 11.542C34.256 11.8317 34.2625 12.1226 34.2625 12.4124V17.2278C34.2625 20.5483 34.2625 23.8692 34.2625 27.1897C34.2625 28.8659 36.8672 28.8686 36.8672 27.1897C36.8672 24.5807 36.8672 21.9716 36.8672 19.3626C36.8672 16.7535 36.7593 14.1347 36.8672 11.5354C36.9117 10.4643 37.6818 9.72735 38.7383 9.6644C40.6918 9.54882 42.6877 9.6644 44.6444 9.6644C46.5687 9.6644 48.4923 9.6644 50.4166 9.6644C51.3526 9.6644 52.3001 9.6237 53.2356 9.6644C53.7397 9.68611 54.1961 9.84998 54.5586 10.2125C55.2836 10.9374 55.1067 12.0716 55.1067 13.0109V17.886C55.1067 20.9873 55.1067 24.0885 55.1067 27.1897C55.1067 28.8659 57.7114 28.8692 57.7114 27.1902Z" fill="#A17BA4"/>
<path d="M42.1399 27.1903C42.1399 23.8036 42.1399 20.4175 42.1399 17.0308C42.1399 16.4312 42.1257 15.83 42.1399 15.2309C42.1632 14.2129 43.4824 14.5732 44.2269 14.5737C45.2487 14.5748 46.2699 14.5754 47.2917 14.5759C47.7096 14.5759 48.128 14.5759 48.5458 14.5765C48.8426 14.5765 49.2675 14.4934 49.5421 14.6107C50.0278 14.8179 49.8346 15.6487 49.8346 16.0649C49.8346 17.0151 49.8346 17.9653 49.8346 18.916C49.8346 21.6743 49.8346 24.4325 49.8346 27.1908C49.8346 28.867 52.4393 28.8698 52.4393 27.1908C52.4393 24.5834 52.4393 21.976 52.4393 19.3686C52.4393 18.305 52.4393 17.2414 52.4393 16.1778C52.4393 15.1761 52.4925 14.2031 51.9075 13.3349C50.7044 11.5507 48.345 11.9723 46.4864 11.9712C45.2905 11.9707 44.0945 11.9609 42.8985 11.968C41.8479 11.9739 40.8988 12.2876 40.2243 13.1314C39.622 13.8846 39.5352 14.7355 39.5352 15.6487V21.8647C39.5352 23.6403 39.5352 25.4153 39.5352 27.1908C39.5352 28.867 42.1399 28.8698 42.1399 27.1908V27.1903Z" fill="#A17BA4"/>
<path d="M35.7257 15.7995C37.3846 15.7995 39.0429 15.7995 40.7018 15.7995C41.3828 15.7995 42.0356 15.2004 42.0041 14.4972C41.9726 13.7939 41.4316 13.1948 40.7018 13.1948C39.0429 13.1948 37.3846 13.1948 35.7257 13.1948C35.0447 13.1948 34.3919 13.7939 34.4233 14.4972C34.4548 15.2004 34.9958 15.7995 35.7257 15.7995Z" fill="#A17BA4"/>
<path d="M56.4093 13.196H51.1369C50.4559 13.196 49.8031 13.7951 49.8346 14.4983C49.8661 15.2016 50.4071 15.8007 51.1369 15.8007H56.4093C57.0903 15.8007 57.7431 15.2016 57.7116 14.4983C57.6802 13.7951 57.1392 13.196 56.4093 13.196Z" fill="#A17BA4"/>
<path d="M30.2146 74.4769H61.7597C64.2873 74.4769 66.3363 72.4279 66.3363 69.9003C66.3363 55.798 66.3363 41.6957 66.3363 27.5934C66.3363 25.0657 64.2873 23.0167 61.7597 23.0167H30.2151C27.6875 23.0167 25.6384 25.0657 25.6384 27.5934V69.9003C25.6384 72.4279 27.6869 74.4769 30.2146 74.4769Z" fill="white"/>
<path d="M30.2146 75.7793C34.2394 75.7793 38.2647 75.7793 42.2896 75.7793C48.0785 75.7793 53.8674 75.7793 59.6564 75.7793C61.6349 75.7793 63.564 75.8889 65.2598 74.6116C66.2468 73.8681 66.968 72.867 67.3587 71.6927C67.8167 70.3165 67.6387 68.7499 67.6387 67.3233C67.6387 64.0234 67.6387 60.7242 67.6387 57.4243C67.6387 50.7346 67.6387 44.0454 67.6387 37.3557C67.6387 34.0743 67.7326 30.7777 67.6365 27.4985C67.5633 24.9844 65.9413 22.7889 63.552 21.9934C62.1254 21.5185 60.3673 21.7133 58.8842 21.7133H50.8634C44.9116 21.7133 38.9599 21.7133 33.0081 21.7133C31.4849 21.7133 29.704 21.5207 28.2529 22.053C25.9103 22.9126 24.379 25.1038 24.3356 27.5929C24.3312 27.8431 24.3356 28.0938 24.3356 28.3439C24.3356 32.919 24.3356 37.494 24.3356 42.0691V61.1453C24.3356 63.3652 24.3356 65.5852 24.3356 67.8051C24.3356 69.1384 24.2102 70.5906 24.6753 71.8604C25.5354 74.2084 27.7255 75.7272 30.2146 75.7777C31.8914 75.8119 31.8914 73.2072 30.2146 73.173C28.3994 73.1361 26.9723 71.7144 26.9403 69.896C26.9359 69.6398 26.9403 69.3832 26.9403 69.127V64.1309C26.9403 58.235 26.9403 52.3397 26.9403 46.4439C26.9403 41.1303 26.9403 35.8167 26.9403 30.5031C26.9403 29.5361 26.9234 28.5675 26.9403 27.6011C26.9685 25.9563 28.1742 24.5205 29.8396 24.3327C30.2287 24.2887 30.6406 24.3175 31.0313 24.3175C36.0844 24.3175 41.1375 24.3175 46.1906 24.3175H61.057C61.5415 24.3175 62.0408 24.2877 62.5129 24.4038C63.3751 24.6165 64.1169 25.1483 64.5711 25.914C65.1729 26.9298 65.034 28.0824 65.034 29.2187C65.034 35.6821 65.034 42.1456 65.034 48.609C65.034 55.0275 65.034 61.4459 65.034 67.8643C65.034 69.0033 65.2267 70.2883 64.7008 71.3443C64.2955 72.1588 63.5651 72.7872 62.6876 73.0395C62.1607 73.1909 61.6392 73.173 61.0998 73.173C56.1753 73.173 51.2503 73.173 46.3258 73.173H31.1024C30.8061 73.173 30.5109 73.173 30.2146 73.173C28.5384 73.173 28.5356 75.7777 30.2146 75.7777V75.7793Z" fill="#A17BA4"/>
<path d="M34.9377 33.7866C34.9377 43.7599 34.9377 53.7332 34.9377 63.706H37.5424C37.5424 63.401 37.5424 63.0966 37.5424 62.7916C37.5424 61.1154 34.9377 61.1127 34.9377 62.7916C34.9377 63.0966 34.9377 63.401 34.9377 63.706C34.9377 65.3822 37.5424 65.3849 37.5424 63.706C37.5424 53.7327 37.5424 43.7594 37.5424 33.7866C37.5424 32.1104 34.9377 32.1077 34.9377 33.7866Z" fill="#A17BA4"/>
<path d="M44.6849 33.7866C44.6849 43.7599 44.6849 53.7332 44.6849 63.706H47.2896C47.2896 63.401 47.2896 63.0966 47.2896 62.7916C47.2896 61.1154 44.6849 61.1127 44.6849 62.7916C44.6849 63.0966 44.6849 63.401 44.6849 63.706C44.6849 65.3822 47.2896 65.3849 47.2896 63.706C47.2896 53.7327 47.2896 43.7594 47.2896 33.7866C47.2896 32.1104 44.6849 32.1077 44.6849 33.7866Z" fill="#A17BA4"/>
<path d="M54.4316 33.7866C54.4316 43.7599 54.4316 53.7332 54.4316 63.706H57.0363C57.0363 63.401 57.0363 63.0966 57.0363 62.7916C57.0363 61.1154 54.4316 61.1127 54.4316 62.7916C54.4316 63.0966 54.4316 63.401 54.4316 63.706C54.4316 65.3822 57.0363 65.3849 57.0363 63.706C57.0363 53.7327 57.0363 43.7594 57.0363 33.7866C57.0363 32.1104 54.4316 32.1077 54.4316 33.7866Z" fill="#A17BA4"/>
<path d="M31.3091 75.6441C28.9394 75.6441 27.3011 77.4799 27.3011 79.6277C27.3011 82.031 28.9747 83.6856 31.3091 83.6856C33.7342 83.6856 35.3171 82.0153 35.3171 79.6277C35.3171 77.4652 33.6702 75.6441 31.3086 75.6441H31.3091Z" fill="#BFA7DC"/>
<path d="M60.6651 75.6441C58.2953 75.6441 56.6571 77.4799 56.6571 79.6277C56.6571 82.031 58.3306 83.6856 60.6651 83.6856C63.0902 83.6856 64.6731 82.0153 64.6731 79.6277C64.6731 77.4652 63.0267 75.6441 60.6651 75.6441Z" fill="#BFA7DC"/>
<path d="M31.3092 74.3419C28.9834 74.3717 26.9403 75.8054 26.2349 78.0422C25.5897 80.0874 26.2512 82.5456 27.9627 83.868C29.6742 85.1904 32.2062 85.3619 34.0973 84.281C36.0579 83.1604 36.8604 80.8542 36.5321 78.6971C36.1425 76.1348 33.8374 74.3744 31.3092 74.3419C30.6276 74.3332 29.9754 74.9475 30.0068 75.6448C30.0388 76.3578 30.5788 76.9379 31.3092 76.9471C31.4258 76.9487 31.5414 76.9574 31.6581 76.9607C32.0173 76.9699 31.4155 76.8934 31.759 76.9726C31.9365 77.0138 32.1134 77.0502 32.287 77.1072C32.3549 77.1294 32.4211 77.1544 32.4878 77.1793C32.1948 77.0714 32.51 77.1956 32.5594 77.2211C32.7428 77.3161 32.917 77.4262 33.0831 77.5489C32.8286 77.3617 33.216 77.6829 33.2779 77.7464C33.349 77.8191 33.4136 77.8962 33.4808 77.9722C33.2947 77.7638 33.4477 77.9239 33.4906 77.9911C33.591 78.149 33.6805 78.3097 33.7733 78.4719C33.8037 78.5251 33.8683 78.6998 33.7674 78.4405C33.8173 78.5685 33.8634 78.6971 33.9014 78.8295C33.9497 78.9967 33.985 79.1665 34.0132 79.3385C33.9589 79.0086 34.0148 79.5496 34.0153 79.6294C34.0153 79.8123 34.0018 79.9935 33.9866 80.1753C34.0143 79.8459 33.9817 80.1845 33.9698 80.2453C33.9464 80.3625 33.9182 80.4781 33.8857 80.5931C33.8629 80.6734 33.8379 80.7532 33.8102 80.8319C33.7864 80.8997 33.642 81.1754 33.7934 80.8845C33.7191 81.0267 33.6496 81.17 33.5639 81.3056C33.5221 81.3713 33.4684 81.4337 33.4309 81.5015C33.3425 81.66 33.6382 81.2855 33.4293 81.4956C33.2958 81.6296 33.1667 81.7604 33.0256 81.8873C33.2746 81.6627 32.9154 81.9557 32.8242 82.0094C32.7412 82.0583 32.6539 82.0995 32.5697 82.1462C32.3055 82.2932 32.7472 82.1109 32.5659 82.1511C32.3874 82.1907 32.2148 82.271 32.0352 82.3128C31.9674 82.3285 31.899 82.3394 31.8317 82.3551C31.6831 82.379 31.6934 82.379 31.8621 82.3551C31.79 82.3632 31.7172 82.3698 31.6451 82.3741C31.46 82.3866 31.2744 82.3887 31.0894 82.3801C30.9814 82.3752 30.874 82.3654 30.7671 82.354C30.8159 82.3594 31.0373 82.4067 30.8007 82.3529C30.6168 82.3112 30.4355 82.2715 30.2564 82.2118C30.1772 82.1853 30.0991 82.1565 30.022 82.1256C30.333 82.2493 29.9976 82.1028 29.9336 82.0675C29.7773 81.9823 29.6302 81.8846 29.4859 81.7804C29.7567 81.9763 29.3812 81.6692 29.3177 81.6041C29.265 81.5498 29.2156 81.4722 29.1565 81.4261C29.0181 81.3176 29.3128 81.6724 29.1538 81.4223C29.0474 81.2557 28.9519 81.0886 28.8553 80.9166C28.6958 80.6338 28.9302 81.1721 28.8287 80.8596C28.8076 80.795 28.7832 80.7315 28.7625 80.6664C28.699 80.4656 28.6562 80.2616 28.6182 80.0543C28.6274 80.1037 28.6404 80.3278 28.6242 80.0771C28.6171 79.9653 28.6079 79.8546 28.6057 79.7423C28.6035 79.6506 28.6041 79.5594 28.6079 79.4682C28.6106 79.3944 28.6611 79.0086 28.6063 79.3412C28.6399 79.1361 28.6849 78.9343 28.7473 78.7357C28.7783 78.638 28.8135 78.5414 28.851 78.4464C28.769 78.6532 28.832 78.5002 28.8906 78.3878C28.985 78.2082 29.0941 78.0373 29.214 77.8739C29.0246 78.1317 29.2303 77.8669 29.2683 77.8262C29.3367 77.7518 29.4088 77.6797 29.4832 77.6108C29.5228 77.5739 29.7871 77.3638 29.5326 77.5538C29.615 77.4924 29.6997 77.4339 29.7865 77.3796C29.8744 77.3242 29.9645 77.2727 30.0562 77.2249C30.1588 77.1718 30.3378 77.1039 30.1278 77.1821C30.3308 77.1061 30.5364 77.0415 30.7492 76.9959C30.7991 76.9851 31.1572 76.9438 30.8458 76.9721C31.0004 76.9579 31.1545 76.9498 31.3097 76.9482C31.9907 76.9395 32.6441 76.3556 32.6121 75.6458C32.5806 74.948 32.0396 74.3343 31.3097 74.3435L31.3092 74.3419Z" fill="#A17BA4"/>
<path d="M60.6651 74.3419C58.3393 74.3717 56.2963 75.8054 55.5908 78.0422C54.9456 80.0874 55.6071 82.5456 57.3186 83.868C59.0301 85.1904 61.5621 85.3619 63.4532 84.281C65.4138 83.1604 66.2164 80.8542 65.8881 78.6971C65.4985 76.1348 63.1933 74.3744 60.6651 74.3419C59.9836 74.3332 59.3313 74.9475 59.3628 75.6448C59.3948 76.3578 59.9347 76.9379 60.6651 76.9471C60.7818 76.9487 60.8974 76.9574 61.0141 76.9607C61.3733 76.9699 60.7715 76.8934 61.115 76.9726C61.2924 77.0138 61.4693 77.0502 61.643 77.1072C61.7108 77.1294 61.777 77.1544 61.8438 77.1793C61.5507 77.0714 61.866 77.1956 61.9154 77.2211C62.0988 77.3161 62.273 77.4262 62.439 77.5489C62.1845 77.3617 62.572 77.6829 62.6339 77.7464C62.7049 77.8191 62.7695 77.8962 62.8368 77.9722C62.6507 77.7638 62.8037 77.9239 62.8466 77.9911C62.947 78.149 63.0365 78.3097 63.1293 78.4719C63.1597 78.5251 63.2242 78.6998 63.1233 78.4405C63.1732 78.5685 63.2194 78.6971 63.2573 78.8295C63.3056 78.9967 63.3409 79.1665 63.3691 79.3385C63.3149 79.0086 63.3708 79.5496 63.3713 79.6294C63.3713 79.8123 63.3577 79.9935 63.3425 80.1753C63.3702 79.8459 63.3377 80.1845 63.3257 80.2453C63.3024 80.3625 63.2742 80.4781 63.2416 80.5931C63.2188 80.6734 63.1939 80.7532 63.1662 80.8319C63.1423 80.8997 62.998 81.1754 63.1494 80.8845C63.075 81.0267 63.0056 81.17 62.9198 81.3056C62.878 81.3713 62.8243 81.4337 62.7869 81.5015C62.6984 81.66 62.9942 81.2855 62.7853 81.4956C62.6518 81.6296 62.5226 81.7604 62.3815 81.8873C62.6306 81.6627 62.2714 81.9557 62.1802 82.0094C62.0972 82.0583 62.0098 82.0995 61.9257 82.1462C61.6614 82.2932 62.1031 82.1109 61.9219 82.1511C61.7434 82.1907 61.5708 82.271 61.3912 82.3128C61.3234 82.3285 61.255 82.3394 61.1877 82.3551C61.039 82.379 61.0493 82.379 61.2181 82.3551C61.1459 82.3632 61.0732 82.3698 61.001 82.3741C60.816 82.3866 60.6304 82.3887 60.4454 82.3801C60.3374 82.3752 60.2299 82.3654 60.123 82.354C60.1719 82.3594 60.3933 82.4067 60.1567 82.3529C59.9727 82.3112 59.7915 82.2715 59.6124 82.2118C59.5332 82.1853 59.455 82.1565 59.378 82.1256C59.6889 82.2493 59.3536 82.1028 59.2895 82.0675C59.1332 81.9823 58.9862 81.8846 58.8418 81.7804C59.1126 81.9763 58.7371 81.6692 58.6736 81.6041C58.621 81.5498 58.5716 81.4722 58.5125 81.4261C58.3741 81.3176 58.6687 81.6724 58.5097 81.4223C58.4034 81.2557 58.3079 81.0886 58.2113 80.9166C58.0517 80.6338 58.2862 81.1721 58.1847 80.8596C58.1635 80.795 58.1391 80.7315 58.1185 80.6664C58.055 80.4656 58.0121 80.2616 57.9741 80.0543C57.9834 80.1037 57.9964 80.3278 57.9801 80.0771C57.9731 79.9653 57.9638 79.8546 57.9617 79.7423C57.9595 79.6506 57.96 79.5594 57.9638 79.4682C57.9666 79.3944 58.017 79.0086 57.9622 79.3412C57.9959 79.1361 58.0409 78.9343 58.1033 78.7357C58.1342 78.638 58.1695 78.5414 58.2069 78.4464C58.125 78.6532 58.188 78.5002 58.2466 78.3878C58.341 78.2082 58.45 78.0373 58.57 77.8739C58.3806 78.1317 58.5863 77.8669 58.6242 77.8262C58.6926 77.7518 58.7648 77.6797 58.8391 77.6108C58.8787 77.5739 59.143 77.3638 58.8885 77.5538C58.971 77.4924 59.0556 77.4339 59.1425 77.3796C59.2304 77.3242 59.3205 77.2727 59.4122 77.2249C59.5147 77.1718 59.6938 77.1039 59.4838 77.1821C59.6867 77.1061 59.8924 77.0415 60.1051 76.9959C60.155 76.9851 60.5132 76.9438 60.2017 76.9721C60.3564 76.9579 60.5105 76.9498 60.6657 76.9482C61.3467 76.9395 62 76.3556 61.968 75.6458C61.9366 74.948 61.3955 74.3343 60.6657 74.3435L60.6651 74.3419Z" fill="#A17BA4"/>
</svg>
